<svg width="204" height="205" viewBox="0 0 204 205" fill="none" xmlns="http://www.w3.org/2000/svg">
<path d="M204 103C204 130.052 193.254 155.996 174.125 175.125C154.996 194.254 129.052 205 102 205C74.9479 205 49.0038 194.254 29.8751 175.125C10.7464 155.996 0 130.052 0 103C0 75.9479 10.7464 50.0038 29.8751 30.8751C49.0038 11.7464 74.9479 1 102 1C129.052 1 154.996 11.7464 174.125 30.8751C193.254 50.0038 204 75.9479 204 103Z" fill="#5B33CE"/>
<path d="M102.78 2.23621C100.661 24.6935 95.6813 35.1057 93.7051 44.0276C92.717 48.4886 92.5003 52.5888 93.7822 57.541C95.0641 62.4932 97.8387 68.2979 102.832 76.2596L103.526 75.8341C98.5548 67.9075 95.8294 62.1707 94.5792 57.3408C93.3289 52.511 93.5558 48.5909 94.5278 44.2028C96.4717 35.4266 101.475 24.8596 103.603 2.31129L102.78 2.23621Z" fill="black" stroke="black" stroke-width="2.86814"/>
<path d="M93.463 108.555C93.463 117.261 90.0044 125.611 83.8481 131.767C77.6917 137.924 69.3419 141.382 60.6355 141.382C51.929 141.382 43.5792 137.924 37.4228 131.767C31.2665 125.611 27.8079 117.261 27.8079 108.555C27.8079 99.8481 31.2665 91.4983 37.4228 85.3419C43.5792 79.1856 51.929 75.727 60.6355 75.727C69.3419 75.727 77.6917 79.1856 83.8481 85.3419C90.0044 91.4983 93.463 99.8481 93.463 108.555Z" fill="#F2F2F2"/>
<path d="M177.173 108.555C177.173 117.261 173.715 125.611 167.558 131.767C161.402 137.924 153.052 141.382 144.346 141.382C135.639 141.382 127.289 137.924 121.133 131.767C114.977 125.611 111.518 117.261 111.518 108.555C111.518 99.8481 114.977 91.4983 121.133 85.3419C127.289 79.1856 135.639 75.727 144.346 75.727C153.052 75.727 161.402 79.1856 167.558 85.3419C173.715 91.4983 177.173 99.8481 177.173 108.555Z" fill="#F2F2F2"/>
<path d="M144.756 75.727H57.9976V124.968H144.756V75.727Z" fill="#F2F2F2"/>
<path d="M73.8221 102.339H43.9773V110.63H73.8221V102.339Z" fill="#333333"/>
<path d="M55.1692 91.5622V121.407H63.4594V91.5622H55.1692Z" fill="#333333"/>
<path d="M153.06 94.8949C153.06 96.434 152.449 97.9101 151.361 98.9984C150.272 100.087 148.796 100.698 147.257 100.698C145.718 100.698 144.242 100.087 143.154 98.9984C142.066 97.9101 141.454 96.434 141.454 94.8949C141.454 93.3558 142.066 91.8798 143.154 90.7915C144.242 89.7032 145.718 89.0918 147.257 89.0918C148.796 89.0918 150.272 89.7032 151.361 90.7915C152.449 91.8798 153.06 93.3558 153.06 94.8949Z" fill="#333333"/>
<path d="M153.152 121.198C153.152 122.738 152.541 124.214 151.453 125.302C150.364 126.39 148.888 127.002 147.349 127.002C145.81 127.002 144.334 126.39 143.246 125.302C142.158 124.214 141.546 122.738 141.546 121.198C141.546 119.659 142.158 118.183 143.246 117.095C144.334 116.007 145.81 115.395 147.349 115.395C148.888 115.395 150.364 116.007 151.453 117.095C152.541 118.183 153.152 119.659 153.152 121.198Z" fill="#333333"/>
<path d="M166.195 108.134C166.195 109.673 165.584 111.149 164.495 112.238C163.407 113.326 161.931 113.937 160.392 113.937C158.853 113.937 157.377 113.326 156.288 112.238C155.2 111.149 154.589 109.673 154.589 108.134C154.589 106.595 155.2 105.119 156.288 104.031C157.377 102.943 158.853 102.331 160.392 102.331C161.931 102.331 163.407 102.943 164.495 104.031C165.584 105.119 166.195 106.595 166.195 108.134Z" fill="#333333"/>
<path d="M139.975 108.122C139.975 109.661 139.363 111.137 138.275 112.225C137.187 113.314 135.711 113.925 134.172 113.925C132.632 113.925 131.156 113.314 130.068 112.225C128.98 111.137 128.368 109.661 128.368 108.122C128.368 106.583 128.98 105.107 130.068 104.018C131.156 102.93 132.632 102.319 134.172 102.319C135.711 102.319 137.187 102.93 138.275 104.018C139.363 105.107 139.975 106.583 139.975 108.122Z" fill="#333333"/>
<path d="M95.8823 101.922H88.0066V104.409H95.8823V101.922Z" fill="#333333"/>
<path d="M117.427 101.922H109.552V104.409H117.427V101.922Z" fill="#333333"/>
</svg>
